<?xml version="1.0" encoding="UTF-8"?>
<svg version="1.1" xmlns="http://www.w3.org/2000/svg" width="468" height="492">
<path d="M0 0 C2 1 2 1 3 3 C3.99 2.67 4.98 2.34 6 2 C7.66666667 2.33333333 9.33333333 2.66666667 11 3 C11.99 2.67 12.98 2.34 14 2 C14 2.99 14 3.98 14 5 C14.99 5.495 14.99 5.495 16 6 C16.99 6.66 17.98 7.32 19 8 C19 8.66 19 9.32 19 10 C20.65 10 22.3 10 24 10 C24.33 10.66 24.66 11.32 25 12 C27.93704456 14.0095568 29.39222485 15 33 15 C33.639375 15.66 34.27875 16.32 34.9375 17 C36.99977339 19.46409722 36.99977339 19.46409722 41 19 C41 19.66 41 20.32 41 21 C41.5775 21.12375 42.155 21.2475 42.75 21.375 C45.02316112 22.00643364 46.89715105 22.94857553 49 24 C49.66 24 50.32 24 51 24 C51 24.99 51 25.98 51 27 C51.99 27 52.98 27 54 27 C55.02196992 27.97753644 56.01979625 28.9805881 57 30 C58.93330603 31.09166275 58.93330603 31.09166275 61 32 C67 35 67 35 68 36 C69.75844482 37.26484627 71.53354841 38.50467373 73.30859375 39.74609375 C75 41 75 41 77 43 C77.66 42.67 78.32 42.34 79 42 C83.21269686 43.77869423 86.51046631 46.07633663 90 49 C92.6628692 51.06793667 92.6628692 51.06793667 94.8125 51.3125 C97.18084146 52.05683589 98.26640256 52.95261998 100.125 54.5625 C102.62604873 57.21556175 102.62604873 57.21556175 105 57 C105.474375 57.495 105.94875 57.99 106.4375 58.5 C107.99969942 60.34626591 107.99969942 60.34626591 111 60 C111.66 61.32 112.32 62.64 113 64 C113.66 63.67 114.32 63.34 115 63 C116.9453125 63.92578125 116.9453125 63.92578125 119.125 65.3125 C119.84945313 65.76238281 120.57390625 66.21226563 121.3203125 66.67578125 C121.87460937 67.11277344 122.42890625 67.54976563 123 68 C123 68.66 123 69.32 123 70 C126.96 70.495 126.96 70.495 131 71 C131 72.32 131 73.64 131 75 C132.051875 75.103125 133.10375 75.20625 134.1875 75.3125 C137.99764739 75.99957576 139.86659626 76.83072049 143 79 C144.0725 79.680625 145.145 80.36125 146.25 81.0625 C149 83 149 83 150 85 C150.66 84.67 151.32 84.34 152 84 C152.33 84.66 152.66 85.32 153 86 C153.66 86.165 154.32 86.33 155 86.5 C155.66 86.665 156.32 86.83 157 87 C157.33 87.66 157.66 88.32 158 89 C158.78375 89.144375 159.5675 89.28875 160.375 89.4375 C163.34865024 90.07471076 163.99930522 90.82533176 166 93 C168.09989652 94.17574711 168.09989652 94.17574711 170 95 C170 95.66 170 96.32 170 97 C170.78375 96.95875 171.5675 96.9175 172.375 96.875 C175 97 175 97 177 99 C177 99.99 177 100.98 177 102 C178.65 102.33 180.3 102.66 182 103 C182.103125 103.639375 182.20625 104.27875 182.3125 104.9375 C182.6528125 105.9584375 182.6528125 105.9584375 183 107 C183.99 107.33 184.98 107.66 186 108 C186 108.66 186 109.32 186 110 C186.66 110.33 187.32 110.66 188 111 C188.93543557 112.9845222 189.77492182 115.01479673 190.5625 117.0625 C190.99691406 118.16722656 191.43132812 119.27195312 191.87890625 120.41015625 C193.87761082 126.81018934 194.12492492 133.10707091 194.12025452 139.77534485 C194.12153615 140.88498204 194.12153615 140.88498204 194.12284368 142.01703614 C194.12447852 144.47272721 194.11901004 146.92834853 194.11352539 149.3840332 C194.11324305 151.15372211 194.11340216 152.92341114 194.1139679 154.69309998 C194.11425412 159.48194147 194.10838508 164.27075778 194.10139394 169.05959344 C194.09512851 174.07367845 194.09455398 179.08776409 194.09336853 184.10185242 C194.09026355 193.59303844 194.08206235 203.08421291 194.07201904 212.57539386 C194.06084234 223.37135501 194.05534182 234.16731672 194.05032361 244.96328223 C194.04030781 266.25621957 194.02383661 287.54914718 194.00279331 308.8420763 C194.0000686 311.92244196 193.99936459 314.98443244 194.125 318.0625 C194 321 194 321 192 323 C192 323.99 192 324.98 192 326 C191.625 328.125 191.625 328.125 191 330 C190.34 330.33 189.68 330.66 189 331 C188.67 331.99 188.34 332.98 188 334 C187.484375 334.66 186.96875 335.32 186.4375 336 C184.70818198 337.99550643 184.70818198 337.99550643 185 341 C183.33720673 342.0064275 181.67016516 343.00585407 180 344 C178.67206394 346.06700655 178.67206394 346.06700655 178 348 C177.01 348 176.02 348 175 348 C170.36569378 350.52790149 170.36569378 350.52790149 168 355 C166.35 354.67 164.7 354.34 163 354 C162.67 354.66 162.34 355.32 162 356 C161.34 356 160.68 356 160 356 C159.608125 356.433125 159.21625 356.86625 158.8125 357.3125 C157 359 157 359 153.4375 360.4375 C149.94845674 361.6545943 149.94845674 361.6545943 148.5625 364.1875 C148.376875 364.785625 148.19125 365.38375 148 366 C147.01 366 146.02 366 145 366 C144.01 366.66 143.02 367.32 142 368 C140.68 368 139.36 368 138 368 C137.67 368.99 137.34 369.98 137 371 C135.66923011 371.34342449 134.33568021 371.67619874 133 372 C132.34 372.99 131.68 373.98 131 375 C129 376 129 376 128 376 C127.01 376.33 126.02 376.66 125 377 C124.67 376.67 124.34 376.34 124 376 C123.67 376.99 123.34 377.98 123 379 C122.01 379.33 121.02 379.66 120 380 C119.34 380.66 118.68 381.32 118 382 C118 381.34 118 380.68 118 380 C117.34 380.66 116.68 381.32 116 382 C115.34 382.12375 114.68 382.2475 114 382.375 C113.01 382.684375 113.01 382.684375 112 383 C111.67 383.66 111.34 384.32 111 385 C110.67 385.66 110.34 386.32 110 387 C108.67203709 387.35412344 107.33783393 387.68521554 106 388 C105.360625 388.639375 104.72125 389.27875 104.0625 389.9375 C101.81172641 392.18827359 99.969308 392.95672962 97 394 C96.67 394.33 96.34 394.66 96 395 C95.01 395.33 94.02 395.66 93 396 C92.38125 396.495 91.7625 396.99 91.125 397.5 C88.70290465 399.20971437 86.9033394 399.5533324 84 400 C83.01 400.33 82.02 400.66 81 401 C81 401.66 81 402.32 81 403 C79.56429734 403.81567174 78.12636566 404.62742093 76.6875 405.4375 C75.88699219 405.88996094 75.08648437 406.34242188 74.26171875 406.80859375 C72 408 72 408 69 409 C68.67 409.66 68.34 410.32 68 411 C64.53846154 414 64.53846154 414 61 414 C59.32900023 414.31088368 57.66128463 414.64080332 56 415 C55.67 415.99 55.34 416.98 55 418 C55 417.34 55 416.68 55 416 C54.34 416 53.68 416 53 416 C52.773125 416.61875 52.54625 417.2375 52.3125 417.875 C50.61545208 420.62260139 48.97485929 420.93210179 46 422 C45.67 422.66 45.34 423.32 45 424 C42.06295544 426.0095568 40.60777515 427 37 427 C35.39588754 428.35405861 35.39588754 428.35405861 34 430 C31.22157405 432.77842595 29.21633419 433.94471208 25.25 434.125 C24.5075 434.08375 23.765 434.0425 23 434 C22.67 435.65 22.34 437.3 22 439 C21.236875 438.938125 20.47375 438.87625 19.6875 438.8125 C16.97962855 438.69860434 16.97962855 438.69860434 15.625 440.4375 C13.12720656 442.83922446 10.36739718 442.59359 7 443 C4.18137797 443.97549761 4.18137797 443.97549761 2 445 C2 444.34 2 443.68 2 443 C1.0925 443.495 0.185 443.99 -0.75 444.5 C-5.52200766 446.70246507 -8.77426278 445.91207445 -13.625 444.5 C-17.26027954 443.38246666 -17.26027954 443.38246666 -21 443 C-21 442.34 -21 441.68 -21 441 C-23.64 440.34 -26.28 439.68 -29 439 C-29 438.34 -29 437.68 -29 437 C-29.66 437 -30.32 437 -31 437 C-31.78375 436.195625 -32.5675 435.39125 -33.375 434.5625 C-35.90358809 432.09411639 -36.66450413 431.43038656 -40 431 C-42.19636848 430.48320742 -43.97646402 430.01176799 -46 429 C-45.67 428.34 -45.34 427.68 -45 427 C-47.49064888 426.31292445 -49.37886292 426 -52 426 C-52.66 425.34 -53.32 424.68 -54 424 C-54.66 424.33 -55.32 424.66 -56 425 C-56 423.68 -56 422.36 -56 421 C-56.515625 420.87625 -57.03125 420.7525 -57.5625 420.625 C-60.72702351 419.81358372 -63.86124985 418.9054087 -67 418 C-66.67 417.01 -66.34 416.02 -66 415 C-66.99 415.33 -67.98 415.66 -69 416 C-69.99 415.34 -70.98 414.68 -72 414 C-71.67 413.34 -71.34 412.68 -71 412 C-72.65 411.67 -74.3 411.34 -76 411 C-76.495 409.515 -76.495 409.515 -77 408 C-78.98 408 -80.96 408 -83 408 C-83.495 406.515 -83.495 406.515 -84 405 C-85.32 405.33 -86.64 405.66 -88 406 C-88.33 404.35 -88.66 402.7 -89 401 C-91.97 401 -94.94 401 -98 401 C-98.495 399.515 -98.495 399.515 -99 398 C-100.94603274 397.40929986 -100.94603274 397.40929986 -103 397 C-103.66 396.34 -104.32 395.68 -105 395 C-105 394.01 -105 393.02 -105 392 C-105.886875 391.87625 -106.77375 391.7525 -107.6875 391.625 C-110.74601742 391.04792124 -113.23643102 390.42126405 -116 389 C-116.495 387.515 -116.495 387.515 -117 386 C-117.99 386 -118.98 386 -120 386 C-122.71931095 384.54085754 -124.81434857 383.18565143 -127 381 C-127.66 381.33 -128.32 381.66 -129 382 C-129 381.34 -129 380.68 -129 380 C-129.556875 379.731875 -130.11375 379.46375 -130.6875 379.1875 C-133 378 -133 378 -135.5625 376.4375 C-138.00654778 374.88141236 -138.00654778 374.88141236 -141 374 C-142.00136705 373.00136892 -143.00124301 372.00124146 -144 371 C-145.99754651 369.80306646 -145.99754651 369.80306646 -148.125 368.8125 C-149.18074219 368.29623047 -149.18074219 368.29623047 -150.2578125 367.76953125 C-151.83502787 366.93265931 -151.83502787 366.93265931 -153 367 C-153.66 367 -154.32 367 -155 367 C-155.804375 366.175 -156.60875 365.35 -157.4375 364.5 C-159.76122416 361.65083807 -159.76122416 361.65083807 -163 362 C-163 361.34 -163 360.68 -163 360 C-165.11210811 358.8594054 -165.11210811 358.8594054 -168.0625 358.1875 C-169.031875 357.795625 -170.00125 357.40375 -171 357 C-171.875 354.875 -171.875 354.875 -172 353 C-172.66 353 -173.32 353 -174 353 C-174 353.66 -174 354.32 -174 355 C-174.66 355 -175.32 355 -176 355 C-176 354.01 -176 353.02 -176 352 C-176.804375 351.87625 -177.60875 351.7525 -178.4375 351.625 C-179.283125 351.41875 -180.12875 351.2125 -181 351 C-181.33 350.34 -181.66 349.68 -182 349 C-182.99 349.33 -183.98 349.66 -185 350 C-189.02601793 347.0875615 -192.0247925 344.00508702 -195 340 C-194.67 339.34 -194.34 338.68 -194 338 C-194.99 338 -195.98 338 -197 338 C-197 336.68 -197 335.36 -197 334 C-198.4166747 332.2488427 -198.4166747 332.2488427 -200 331 C-199.67 330.34 -199.34 329.68 -199 329 C-199.66 329 -200.32 329 -201 329 C-201.185625 327.5459375 -201.185625 327.5459375 -201.375 326.0625 C-201.684375 324.5465625 -201.684375 324.5465625 -202 323 C-202.66 322.67 -203.32 322.34 -204 322 C-204 316.66666667 -204 311.33333333 -204 306 C-204.01160156 305.1440625 -204.02320313 304.288125 -204.03515625 303.40625 C-204.04417969 302.4471875 -204.05320313 301.488125 -204.0625 300.5 C-204.07410156 299.5409375 -204.08570313 298.581875 -204.09765625 297.59375 C-204 295 -204 295 -203 292 C-203.3165613 290.33006652 -203.65306169 288.66388783 -204 287 C-204.11585592 284.64785537 -204.17490662 282.29246249 -204.1875 279.9375 C-204.20167969 278.72964844 -204.21585938 277.52179688 -204.23046875 276.27734375 C-204.01494866 273.21257502 -203.61519102 271.56004585 -202 269 C-202.66 268.67 -203.32 268.34 -204 268 C-203.814375 267.113125 -203.62875 266.22625 -203.4375 265.3125 C-203.01457364 262.11034331 -203.24758883 260.09324592 -204 257 C-204 251 -204 251 -203.4375 248.9375 C-202.76986497 246.9325719 -202.76986497 246.9325719 -204 245 C-204.09874103 242.03196071 -204.13893232 239.09258454 -204.125 236.125 C-204.12886719 235.30902344 -204.13273437 234.49304688 -204.13671875 233.65234375 C-204.13542969 232.86214844 -204.13414062 232.07195312 -204.1328125 231.2578125 C-204.13168457 230.5373877 -204.13055664 229.81696289 -204.12939453 229.07470703 C-203.99614418 226.93817596 -203.52942145 225.06879185 -203 223 C-202.9039942 220.00244459 -202.9039942 220.00244459 -203.5625 217.125 C-203.99743269 214.01833794 -203.65323537 212.02121358 -203 209 C-203.33 208.01 -203.66 207.02 -204 206 C-203.835 204.88625 -203.67 203.7725 -203.5 202.625 C-203.02061131 199.149432 -203.28286813 197.34661538 -204 194 C-204.0943006 190.99809755 -204.05308904 188.00248034 -204 185 C-204 184.34 -204 183.68 -204 183 C-204 145 -204 145 -203.4375 142.5625 C-202.95010539 139.70776012 -203.35370353 137.80061805 -204 135 C-204 129.55013943 -203.45214308 124.26401868 -202 119 C-201.65939189 117.33480481 -201.32441604 115.66842534 -201 114 C-199.68 114.33 -198.36 114.66 -197 115 C-197 114.34 -197 113.68 -197 113 C-197.66 112.67 -198.32 112.34 -199 112 C-198.071875 111.13375 -198.071875 111.13375 -197.125 110.25 C-194.97478736 108.19041188 -194.97478736 108.19041188 -194 106 C-192.17470783 102.34941565 -189.34645056 100.23096704 -186 98 C-184.98131338 97.01904252 -183.97648017 96.02297922 -183 95 C-182.505 95.99 -182.505 95.99 -182 97 C-181.54625 96.54625 -181.0925 96.0925 -180.625 95.625 C-179.41666667 94.41666667 -178.20833333 93.20833333 -177 92 C-176.01 92 -175.02 92 -174 92 C-172.65210653 91.01971384 -171.31787285 90.02028865 -170 89 C-169.34 89 -168.68 89 -168 89 C-167.67 88.34 -167.34 87.68 -167 87 C-164.74520988 85.53743343 -162.4818098 84.23313377 -160.0625 83.0625 C-157.78467117 81.94824446 -157.78467117 81.94824446 -155.0625 79.9375 C-152.19000463 78.12020701 -150.32701581 77.39141363 -147 77 C-147 76.01 -147 75.02 -147 74 C-145.35 74.33 -143.7 74.66 -142 75 C-142 74.34 -142 73.68 -142 73 C-141.34 73 -140.68 73 -140 73 C-140 72.34 -140 71.68 -140 71 C-138.35 71 -136.7 71 -135 71 C-135 70.34 -135 69.68 -135 69 C-134.34 68.67 -133.68 68.34 -133 68 C-132.67 67.34 -132.34 66.68 -132 66 C-130.33333333 66 -128.66666667 66 -127 66 C-127 65.34 -127 64.68 -127 64 C-126.34 64 -125.68 64 -125 64 C-124.505 63.01 -124.505 63.01 -124 62 C-121.34243936 60.25160484 -119.02617555 59.00872518 -116 58 C-115.505 57.01 -115.505 57.01 -115 56 C-114.278125 55.87625 -113.55625 55.7525 -112.8125 55.625 C-109.26371309 54.83638069 -106.97090622 53.04662428 -104 51 C-103.34 51 -102.68 51 -102 51 C-101.505 50.01 -101.505 50.01 -101 49 C-99.35636866 48.27840576 -97.68949614 47.60648579 -96 47 C-96 46.34 -96 45.68 -96 45 C-94.02 44.67 -92.04 44.34 -90 44 C-90 43.34 -90 42.68 -90 42 C-89.01 42 -88.02 42 -87 42 C-86.01 41.01 -86.01 41.01 -85 40 C-84.34 40.33 -83.68 40.66 -83 41 C-83 40.34 -83 39.68 -83 39 C-80.60239217 35.80318956 -77.70036053 35.18096613 -74 34 C-73.01 33.01 -73.01 33.01 -72 32 C-70.68 32 -69.36 32 -68 32 C-67.67 31.34 -67.34 30.68 -67 30 C-65.74529825 28.91409221 -64.44723803 27.87757609 -63.125 26.875 C-62.42632812 26.33617188 -61.72765625 25.79734375 -61.0078125 25.2421875 C-59 24 -59 24 -56 24 C-55.67 23.34 -55.34 22.68 -55 22 C-54.443125 21.87625 -53.88625 21.7525 -53.3125 21.625 C-50.73708595 21.06246101 -50.73708595 21.06246101 -47.9375 18.9375 C-45 17 -45 17 -42 17 C-41.67 16.01 -41.34 15.02 -41 14 C-40.34 14 -39.68 14 -39 14 C-38.34 13.01 -37.68 12.02 -37 11 C-36.01 11.33 -35.02 11.66 -34 12 C-33.67 11.34 -33.34 10.68 -33 10 C-28.29214013 6.49647638 -23.95466024 4.52527293 -18.1875 3.5 C-17.465625 3.335 -16.74375 3.17 -16 3 C-15.67 2.34 -15.34 1.68 -15 1 C-14.00097656 1.01160156 -13.00195312 1.02320312 -11.97265625 1.03515625 C-10.68230469 1.04417969 -9.39195312 1.05320312 -8.0625 1.0625 C-6.13083984 1.07990234 -6.13083984 1.07990234 -4.16015625 1.09765625 C-1.13701597 1.36532549 -1.13701597 1.36532549 0 0 Z M-16 92 C-17.66194453 92.35613097 -19.328451 92.69208308 -21 93 C-24.1315587 93.89767656 -24.1315587 93.89767656 -27 96 C-27 96.66 -27 97.32 -27 98 C-27.66 98 -28.32 98 -29 98 C-29.495 97.01 -29.495 97.01 -30 96 C-30 97.32 -30 98.64 -30 100 C-30.99 99.67 -31.98 99.34 -33 99 C-33 99.66 -33 100.32 -33 101 C-34.093125 101.28875 -35.18625 101.5775 -36.3125 101.875 C-40.04013845 102.81893204 -40.04013845 102.81893204 -43 105 C-43.66 105 -44.32 105 -45 105 C-45 105.66 -45 106.32 -45 107 C-45.5775 107.12375 -46.155 107.2475 -46.75 107.375 C-49.04413966 108.01226102 -50.90122277 108.8850246 -53 110 C-53.680625 110.309375 -54.36125 110.61875 -55.0625 110.9375 C-57.0625 111.91666667 -57.0625 111.91666667 -58.5625 113.5625 C-60 115 -60 115 -63 116 C-63 116.66 -63 117.32 -63 118 C-63.61488281 118.18175781 -64.22976562 118.36351562 -64.86328125 118.55078125 C-65.67152344 118.80214844 -66.47976562 119.05351562 -67.3125 119.3125 C-68.51326172 119.67794922 -68.51326172 119.67794922 -69.73828125 120.05078125 C-72.13600901 121.0570815 -73.24924494 122.12173897 -75 124 C-77.97373807 125.61077479 -80.79123624 126.93041208 -84 128 C-84.66 128.99 -85.32 129.98 -86 131 C-86.99 131 -87.98 131 -89 131 C-91.09852229 132.00961532 -91.09852229 132.00961532 -93.1875 133.375 C-93.90292969 133.81585938 -94.61835938 134.25671875 -95.35546875 134.7109375 C-95.89816406 135.13632813 -96.44085938 135.56171875 -97 136 C-97 136.66 -97 137.32 -97 138 C-98.485 137.505 -98.485 137.505 -100 137 C-102.14255793 137.38932856 -102.14255793 137.38932856 -104 138 C-104 138.66 -104 139.32 -104 140 C-104.99 140.495 -104.99 140.495 -106 141 C-106 141.99 -106 142.98 -106 144 C-107.093125 144.268125 -108.18625 144.53625 -109.3125 144.8125 C-113.34806854 146.04630518 -113.34806854 146.04630518 -116 149 C-116 149.99 -116 150.98 -116 152 C-116.66 152 -117.32 152 -118 152 C-119.6655048 153.94308893 -120.91788155 155.83576311 -122.0625 158.125 C-123 160 -123 160 -125 162 C-124.67 162.66 -124.34 163.32 -124 164 C-124.28875 164.556875 -124.5775 165.11375 -124.875 165.6875 C-126.35831248 168.73653122 -126.58122728 171.64981822 -127 175 C-127.309375 176.0828125 -127.309375 176.0828125 -127.625 177.1875 C-128.14037365 179.00862807 -128.14037365 179.00862807 -127.53125 180.82421875 C-126.95955108 183.16566213 -126.86695049 185.21819582 -126.875 187.625 C-126.87242188 188.40101563 -126.86984375 189.17703125 -126.8671875 189.9765625 C-127 192 -127 192 -128 194 C-128.21081851 197.89459074 -128.21081851 197.89459074 -127 201 C-127 201.99 -127 202.98 -127 204 C-126.67 204.99 -126.34 205.98 -126 207 C-126.165 208.010625 -126.33 209.02125 -126.5 210.0625 C-127.15254369 215.20128159 -127.37318795 221.2536241 -125 226 C-125.99 226.33 -126.98 226.66 -128 227 C-127.01 229.475 -127.01 229.475 -126 232 C-126.66 232.33 -127.32 232.66 -128 233 C-127.01 236.465 -127.01 236.465 -126 240 C-126.66 240.33 -127.32 240.66 -128 241 C-127.835 242.03125 -127.67 243.0625 -127.5 244.125 C-126.80991105 249.39047324 -127.01696637 254.62775577 -127.16015625 259.92578125 C-127.2533333 263.17321583 -127.2533333 263.17321583 -125 266 C-125.99 266.33 -126.98 266.66 -128 267 C-127.34 267 -126.68 267 -126 267 C-126.01740234 268.39025391 -126.01740234 268.39025391 -126.03515625 269.80859375 C-126.04417969 271.00613281 -126.05320312 272.20367187 -126.0625 273.4375 C-126.07410156 274.63246094 -126.08570312 275.82742188 -126.09765625 277.05859375 C-126.33901792 279.88873341 -126.33901792 279.88873341 -125 281 C-124.566875 282.7325 -124.566875 282.7325 -124.125 284.5 C-123.568125 286.2325 -123.568125 286.2325 -123 288 C-122.01 288.33 -121.02 288.66 -120 289 C-119.9175 289.94875 -119.835 290.8975 -119.75 291.875 C-119.5025 292.90625 -119.255 293.9375 -119 295 C-117.6846659 295.70151152 -116.34882408 296.36525925 -115 297 C-114.505 298.010625 -114.01 299.02125 -113.5 300.0625 C-112.34757603 303.15153417 -112.34757603 303.15153417 -109.875 303.75 C-109.25625 303.8325 -108.6375 303.915 -108 304 C-107.505 304.99 -107.505 304.99 -107 306 C-105.22539972 307.12683458 -105.22539972 307.12683458 -103.125 308.125 C-102.07699219 308.65480469 -102.07699219 308.65480469 -101.0078125 309.1953125 C-98.89639647 310.18600666 -98.89639647 310.18600666 -96 310 C-95.67 310.99 -95.34 311.98 -95 313 C-92.39757586 314.64820195 -91.13751221 315 -88 315 C-87.95875 315.61875 -87.9175 316.2375 -87.875 316.875 C-87.58625 317.57625 -87.2975 318.2775 -87 319 C-84.15020361 320.11680706 -84.15020361 320.11680706 -81 321 C-79.64886795 321.97581759 -78.31053056 322.97029741 -77 324 C-76.34 324 -75.68 324 -75 324 C-74.01 324.99 -74.01 324.99 -73 326 C-69.91652174 326.16681109 -69.91652174 326.16681109 -67 326 C-66.505 328.475 -66.505 328.475 -66 331 C-64.68 331 -63.36 331 -62 331 C-60.5625 332.25 -60.5625 332.25 -59 334 C-55.99707299 336.61793637 -53.88901284 338.19537665 -50 339 C-49.34 339.66 -48.68 340.32 -48 341 C-46.16666667 342.33333333 -46.16666667 342.33333333 -44 343 C-41.76529595 342.21690533 -41.76529595 342.21690533 -40 341 C-39.87625 341.61875 -39.7525 342.2375 -39.625 342.875 C-39.12802644 345.19120832 -39.12802644 345.19120832 -37 347 C-36.34 347 -35.68 347 -35 347 C-32 348 -32 348 -30.0625 350.5 C-27.84922285 353.18276018 -27.31676223 353.60979268 -24 354 C-22.9275 354.185625 -21.855 354.37125 -20.75 354.5625 C-19.8425 354.706875 -18.935 354.85125 -18 355 C-18 355.66 -18 356.32 -18 357 C-17.34 356.67 -16.68 356.34 -16 356 C-15.67 356.33 -15.34 356.66 -15 357 C-8.35142952 359.21619016 -1.52366307 358.25362906 5 356 C5.70898438 355.77054687 6.41796875 355.54109375 7.1484375 355.3046875 C9.44139187 354.56123813 11.72037388 353.78325615 14 353 C15.14662109 352.62681641 15.14662109 352.62681641 16.31640625 352.24609375 C18.24409174 351.58743914 20.12760496 350.80245502 22 350 C22.33 349.01 22.66 348.02 23 347 C23.804375 346.87625 24.60875 346.7525 25.4375 346.625 C26.7059375 346.315625 26.7059375 346.315625 28 346 C28.33 345.34 28.66 344.68 29 344 C30.99609375 343.18359375 30.99609375 343.18359375 33.4375 342.4375 C36.79152852 341.40082993 36.79152852 341.40082993 40 340 C40 339.34 40 338.68 40 338 C40.53625 337.9175 41.0725 337.835 41.625 337.75 C44.13414601 336.9576381 45.93937043 335.74821014 48.08203125 334.25 C52.82906237 331.1562119 57.93375744 328.53312128 63 326 C63 325.34 63 324.68 63 324 C64.98 323.34 66.96 322.68 69 322 C69 321.34 69 320.68 69 320 C70.0828125 319.8453125 70.0828125 319.8453125 71.1875 319.6875 C75.11778005 318.72676488 77.93588813 316.81373261 81.125 314.375 C83 313 83 313 86 312 C86 311.34 86 310.68 86 310 C86.99 310.33 87.98 310.66 89 311 C89 310.01 89 309.02 89 308 C90.65 308 92.3 308 94 308 C94.33 306.68 94.66 305.36 95 304 C96.1446875 303.7834375 96.1446875 303.7834375 97.3125 303.5625 C102.58153449 302.45967883 105.0401005 300.41406616 108 296 C108.67939174 294.00428677 109.34561559 292.00405227 110 290 C111.2494023 288.10202262 112.58008817 286.30763253 113.9765625 284.515625 C115.18653986 283.02855168 115.18653986 283.02855168 115 281 C115.48563877 278.75392069 116.02452804 276.52314052 116.5625 274.2890625 C117.12515216 271.73360206 117.12515216 271.73360206 117 268 C117.01160156 267.10023438 117.02320313 266.20046875 117.03515625 265.2734375 C117.04417969 264.31695312 117.05320312 263.36046875 117.0625 262.375 C117.07990234 260.93253906 117.07990234 260.93253906 117.09765625 259.4609375 C117.16879464 256.99475872 117.16879464 256.99475872 116 255 C116.66 254.67 117.32 254.34 118 254 C117.34 254 116.68 254 116 254 C116.33 253.01 116.66 252.02 117 251 C117 250.01 117 249.02 117 248 C117.28394702 246.07547022 117.56841813 244.15089524 117.87890625 242.23046875 C118.09104948 239.93765136 118.09104948 239.93765136 117.53125 237.46875 C116.75745062 232.41629522 116.89611845 227.41516321 116.9375 222.3125 C116.94201172 221.26771484 116.94652344 220.22292969 116.95117188 219.14648438 C116.95987091 217.21654107 116.97062777 215.28660513 116.98413086 213.35668945 C116.99615401 211.57115895 117 209.78557099 117 208 C117 199.66666667 117 191.33333333 117 183 C116.814375 182.195625 116.62875 181.39125 116.4375 180.5625 C116 178 116 178 117 175 C116.34 175 115.68 175 115 175 C115.20625 174.319375 115.4125 173.63875 115.625 172.9375 C116.10432588 169.18278058 115.1694617 166.57335518 114 163 C113.814375 162.236875 113.62875 161.47375 113.4375 160.6875 C112.54043334 157.22738574 110.60341499 155.3667409 108 153 C107.34 153 106.68 153 106 153 C105.8453125 152.1028125 105.8453125 152.1028125 105.6875 151.1875 C104.88329124 148.62865395 103.98798927 147.76710157 102 146 C101.01 144.9171875 101.01 144.9171875 100 143.8125 C98.079357 141.66424029 98.079357 141.66424029 95 142 C95 141.34 95 140.68 95 140 C94.01 140 93.02 140 92 140 C91.67 139.34 91.34 138.68 91 138 C90.01 138 89.02 138 88 138 C87.34 137.01 86.68 136.02 86 135 C84.67851173 134.62243192 83.34164079 134.2981424 82 134 C76.33962264 131.50943396 76.33962264 131.50943396 74 128 C73.34 128 72.68 128 72 128 C70.824375 127.2265625 70.824375 127.2265625 69.625 126.4375 C67.15319179 124.74639717 67.15319179 124.74639717 64.6875 125.3125 C64.130625 125.539375 63.57375 125.76625 63 126 C63.33 125.01 63.66 124.02 64 123 C62.7934375 122.566875 62.7934375 122.566875 61.5625 122.125 C59 121 59 121 58 119 C55.47266765 118.34444881 55.47266765 118.34444881 53 118 C52.67 117.01 52.34 116.02 52 115 C51.67 115.66 51.34 116.32 51 117 C50.01 116.01 49.02 115.02 48 114 C47.01 114.33 46.02 114.66 45 115 C45 114.34 45 113.68 45 113 C41.36676311 110.03764305 41.36676311 110.03764305 37 109 C37 108.34 37 107.68 37 107 C35.35 106.34 33.7 105.68 32 105 C32 105.66 32 106.32 32 107 C31.34 107 30.68 107 30 107 C30.33 106.01 30.66 105.02 31 104 C30.01 104 29.02 104 28 104 C28 103.34 28 102.68 28 102 C26.96875 101.5875 25.9375 101.175 24.875 100.75 C21.28709598 99.22168388 18.20102411 97.23327263 15 95 C14.01 94.505 14.01 94.505 13 94 C12.67 93.34 12.34 92.68 12 92 C11.06027344 92.01740234 11.06027344 92.01740234 10.1015625 92.03515625 C9.28429687 92.04417969 8.46703125 92.05320312 7.625 92.0625 C6.81289062 92.07410156 6.00078125 92.08570312 5.1640625 92.09765625 C3 92 3 92 1 91 C0.34 91.33 -0.32 91.66 -1 92 C-1.495 91.01 -1.495 91.01 -2 90 C-7.17351717 89.79711697 -11.23329476 89.74905586 -16 92 Z M-203 186 C-202.67 186.66 -202.34 187.32 -202 188 C-201.67 187.34 -201.34 186.68 -201 186 C-201.66 186 -202.32 186 -203 186 Z M-202 235 C-202.33 235.66 -202.66 236.32 -203 237 C-202.34 237 -201.68 237 -201 237 C-201.33 236.34 -201.66 235.68 -202 235 Z M-202 259 C-201 261 -201 261 -201 261 Z M-127 275 C-126 277 -126 277 -126 277 Z M-63 332 C-62 334 -62 334 -62 334 Z M-36 347 C-35 349 -35 349 -35 349 Z M-65 415 C-65 415.66 -65 416.32 -65 417 C-64.34 416.67 -63.68 416.34 -63 416 C-63.66 415.67 -64.32 415.34 -65 415 Z " fill="#8A4B25" transform="translate(240,21)"/>
<path d="M0 0 C1.4540625 0.0309375 1.4540625 0.0309375 2.9375 0.0625 C3.4325 1.5475 3.4325 1.5475 3.9375 3.0625 C4.5975 3.3925 5.2575 3.7225 5.9375 4.0625 C5.6590625 5.17625 5.6590625 5.17625 5.375 6.3125 C4.75995472 8.93674696 4.75995472 8.93674696 5.46875 10.9375 C6.04248661 13.53843932 5.64273901 15.24154397 5 17.8125 C4.80535156 18.61171875 4.61070312 19.4109375 4.41015625 20.234375 C4.25417969 20.83765625 4.09820312 21.4409375 3.9375 22.0625 C4.5975 22.3925 5.2575 22.7225 5.9375 23.0625 C5.2775 23.0625 4.6175 23.0625 3.9375 23.0625 C3.77067728 27.98377034 3.68921948 31.56593896 5.9375 36.0625 C5.2775 36.0625 4.6175 36.0625 3.9375 36.0625 C4.288125 36.97 4.63875 37.8775 5 38.8125 C6.34211634 43.39258933 5.73793531 47.70502296 5.2265625 52.390625 C4.88372025 55.11168834 4.88372025 55.11168834 4.9375 58.0625 C4.9375 70.0625 4.9375 70.0625 4.3125 72.5625 C4.126875 73.8 4.126875 73.8 3.9375 75.0625 C4.9275 76.0525 4.9275 76.0525 5.9375 77.0625 C5.58394564 79.32524788 4.96205574 81.01338852 3.9375 83.0625 C4.9275 83.5575 4.9275 83.5575 5.9375 84.0625 C1.77666084 88.9576049 1.77666084 88.9576049 -2.0625 89.4375 C-6.50781536 88.88183558 -10.11471647 88.25571307 -14.0625 86.0625 C-14.0625 86.7225 -14.0625 87.3825 -14.0625 88.0625 C-14.84625 88.02125 -15.63 87.98 -16.4375 87.9375 C-19.22366119 87.77521266 -19.22366119 87.77521266 -21.0625 90.0625 C-21.7225 89.4025 -22.3825 88.7425 -23.0625 88.0625 C-26.64593976 87.89572718 -26.64593976 87.89572718 -30.0625 88.0625 C-29.7325 85.7525 -29.4025 83.4425 -29.0625 81.0625 C-29.3925 81.0625 -29.7225 81.0625 -30.0625 81.0625 C-30.05464478 79.89678467 -30.05464478 79.89678467 -30.04663086 78.70751953 C-30.02589844 75.20085451 -30.01285179 71.69420237 -30 68.1875 C-29.99162109 66.96417969 -29.98324219 65.74085938 -29.97460938 64.48046875 C-29.97138672 63.31386719 -29.96816406 62.14726562 -29.96484375 60.9453125 C-29.95960693 59.86652832 -29.95437012 58.78774414 -29.94897461 57.67626953 C-29.88366894 55.08017814 -29.88366894 55.08017814 -31.0625 53.0625 C-30.4025 53.0625 -29.7425 53.0625 -29.0625 53.0625 C-29.5575 51.5775 -29.5575 51.5775 -30.0625 50.0625 C-30.0625 49.4025 -30.0625 48.7425 -30.0625 48.0625 C-30.43375 47.299375 -30.805 46.53625 -31.1875 45.75 C-32.28416719 42.38166507 -31.50138317 41.1941869 -30.0625 38.0625 C-30.3925 37.4025 -30.7225 36.7425 -31.0625 36.0625 C-30.0725 35.5675 -30.0725 35.5675 -29.0625 35.0625 C-29.2275 34.36125 -29.3925 33.66 -29.5625 32.9375 C-30.08828792 29.91421946 -30.12909301 27.12577839 -30.0625 24.0625 C-30.0625 23.0725 -30.0625 22.0825 -30.0625 21.0625 C-30.0625 9.0625 -30.0625 9.0625 -28.875 7.51171875 C-26.71174242 5.78204513 -24.64240929 4.87701834 -22.0625 3.875 C-20.763125 3.35873047 -20.763125 3.35873047 -19.4375 2.83203125 C-17.0625 2.0625 -17.0625 2.0625 -14.0625 2.0625 C-12.35276548 1.93413335 -10.64440149 1.78673265 -8.9375 1.625 C-8.04804688 1.54378906 -7.15859375 1.46257812 -6.2421875 1.37890625 C-3.19645548 0.93678386 -3.40336916 0.06945651 0 0 Z " fill="#FD6603" transform="translate(245.0625,258.9375)"/>
<path d="M0 0 C1.5625 1.1875 1.5625 1.1875 3 3 C2.625 5.5625 2.625 5.5625 2 8 C2.495 8.99 2.495 8.99 3 10 C2.67 10.99 2.34 11.98 2 13 C2.44296269 15.32871814 3.0801711 17.56273765 3.72265625 19.84375 C4 22 4 22 2 25 C2.66 25.33 3.32 25.66 4 26 C4 30.82365765 3.67048597 35.58625052 2.375 40.25 C1.90887299 42.42525938 2.43364889 43.87618334 3 46 C2.505 46.99 2.505 46.99 2 48 C2.99 48.495 2.99 48.495 4 49 C3.34 49.66 2.68 50.32 2 51 C2.66 51.99 3.32 52.98 4 54 C4 54.99 4 55.98 4 57 C3.34 57 2.68 57 2 57 C2.33 57.99 2.66 58.98 3 60 C2.67 60.99 2.34 61.98 2 63 C2.99 63.495 2.99 63.495 4 64 C3.34 64 2.68 64 2 64 C2 64.99 2 65.98 2 67 C2.66 67 3.32 67 4 67 C3 69 3 69 2 70 C2.350625 70.94875 2.70125 71.8975 3.0625 72.875 C4 76 4 76 3 78 C2.67 78.33 2.34 78.66 2 79 C2.33 79.99 2.66 80.98 3 82 C2.505 83.485 2.505 83.485 2 85 C2.99 85.495 2.99 85.495 4 86 C3.34 86 2.68 86 2 86 C2 87.32 2 88.64 2 90 C0.35 90 -1.3 90 -3 90 C-3 90.66 -3 91.32 -3 92 C-4.19625 91.95875 -5.3925 91.9175 -6.625 91.875 C-11.48767202 91.875 -15.28029556 93.29648455 -19.75 95.125 C-22 96 -22 96 -24 96 C-24.825 96.20625 -25.65 96.4125 -26.5 96.625 C-27.325 96.74875 -28.15 96.8725 -29 97 C-31.5610544 94.4389456 -31.40191222 93.05814287 -31.6875 89.5 C-31.77386719 88.5203125 -31.86023438 87.540625 -31.94921875 86.53125 C-32 84 -32 84 -31 82 C-30.78622279 76.39296787 -30.78622279 76.39296787 -32 71 C-31.67 70.38125 -31.34 69.7625 -31 69.125 C-29.70400722 66.37101535 -30.31369113 64.89774858 -31 62 C-30.67 61.34 -30.34 60.68 -30 60 C-30.66 59.67 -31.32 59.34 -32 59 C-31.34 56.69 -30.68 54.38 -30 52 C-30.66 52 -31.32 52 -32 52 C-32 51.34 -32 50.68 -32 50 C-33.98 49.67 -35.96 49.34 -38 49 C-38.33 49.99 -38.66 50.98 -39 52 C-39.33 51.34 -39.66 50.68 -40 50 C-44.47883696 50.44703986 -44.47883696 50.44703986 -48 53 C-48.33 52.34 -48.66 51.68 -49 51 C-50.98 51 -52.96 51 -55 51 C-55 50.34 -55 49.68 -55 49 C-55.66 49 -56.32 49 -57 49 C-57 49.66 -57 50.32 -57 51 C-57.66 50.67 -58.32 50.34 -59 50 C-58.67 49.34 -58.34 48.68 -58 48 C-55.671875 47.25390625 -55.671875 47.25390625 -52.75 46.5625 C-48.69559668 45.52264008 -45.43609752 44.46969509 -42 42 C-39 40 -39 40 -36 39 C-35.67 38.34 -35.34 37.68 -35 37 C-29 33 -29 33 -26 33 C-25.67 31.68 -25.34 30.36 -25 29 C-23.68 29 -22.36 29 -21 29 C-21.495 27.515 -21.495 27.515 -22 26 C-20.68 26 -19.36 26 -18 26 C-17.79375 25.0925 -17.5875 24.185 -17.375 23.25 C-16 20 -16 20 -13.125 18.125 C-9.49079202 15.65373857 -8.52727899 13.6500148 -6.859375 9.70703125 C-6 8 -6 8 -4 7 C-3.67 6.34 -3.34 5.68 -3 5 C-2.34 5 -1.68 5 -1 5 C-0.67 3.35 -0.34 1.7 0 0 Z M1 26 C2 28 2 28 2 28 Z M-19 91 C-18 93 -18 93 -18 93 Z " fill="#0A1250" transform="translate(247,144)"/>
<path d="M0 0 C1.32 0.33 2.64 0.66 4 1 C4.103125 1.639375 4.20625 2.27875 4.3125 2.9375 C4.539375 3.618125 4.76625 4.29875 5 5 C5.99 5.33 6.98 5.66 8 6 C8 6.66 8 7.32 8 8 C8.66 8.33 9.32 8.66 10 9 C10.93543557 10.9845222 11.77492182 13.01479673 12.5625 15.0625 C12.99691406 16.16722656 13.43132812 17.27195313 13.87890625 18.41015625 C15.82301375 24.63536457 16.12516861 30.77743211 16.12025452 37.26403809 C16.12110894 37.94874318 16.12196337 38.63344827 16.12284368 39.338902 C16.12447642 41.60812368 16.11901366 43.87726963 16.11352539 46.14648438 C16.11324302 47.78311155 16.11340224 49.41973886 16.1139679 51.05636597 C16.11425391 55.48138214 16.10838892 59.906371 16.10139394 64.33138084 C16.0951277 68.96249629 16.09455402 73.59361241 16.09336853 78.22473145 C16.09026485 86.98638134 16.08206445 95.74801871 16.07201904 104.50966311 C16.06082798 114.48789165 16.05533992 124.4661208 16.05032361 134.44435406 C16.03988102 154.96290969 16.02230025 175.48145405 16 196 C15.34 195.67 14.68 195.34 14 195 C13.9845388 193.36772209 13.9845388 193.36772209 13.96876526 191.70246887 C13.86982279 181.3071474 13.76700673 170.91187002 13.66066074 160.51662159 C13.60614116 155.1758921 13.55285798 149.835157 13.50268555 144.49438477 C13.28093629 120.983447 13.02282587 97.49222539 12 74 C11.34 73.67 10.68 73.34 10 73 C9.875 66.25 9.875 66.25 11 64 C10.60061233 61.90178785 10.60061233 61.90178785 10 60 C10.99 60 11.98 60 13 60 C12.87431641 59.06027344 12.87431641 59.06027344 12.74609375 58.1015625 C12.64425781 57.28429687 12.54242188 56.46703125 12.4375 55.625 C12.33308594 54.81289062 12.22867187 54.00078125 12.12109375 53.1640625 C12 51 12 51 13 49 C12.34 48.67 11.68 48.34 11 48 C10.80615821 45.18780295 10.61963397 42.37545804 10.4375 39.5625 C10.38142578 38.76005859 10.32535156 37.95761719 10.26757812 37.13085938 C10.1383705 35.08937889 10.0648727 33.04453631 10 31 C10.33 30.67 10.66 30.34 11 30 C11.5322027 24.03932974 10.5849773 20.29691727 7.875 14.98046875 C7 13 7 13 7 10 C6.34 9.67 5.68 9.34 5 9 C5 8.01 5 7.02 5 6 C4.01 5.67 3.02 5.34 2 5 C0.8125 2.4375 0.8125 2.4375 0 0 Z " fill="#C9835B" transform="translate(418,123)"/>
<path d="M0 0 C1.32 0.33 2.64 0.66 4 1 C4.103125 1.639375 4.20625 2.27875 4.3125 2.9375 C4.539375 3.618125 4.76625 4.29875 5 5 C5.99 5.33 6.98 5.66 8 6 C8 6.66 8 7.32 8 8 C8.66 8.33 9.32 8.66 10 9 C10.93543557 10.9845222 11.77492182 13.01479673 12.5625 15.0625 C12.99691406 16.16722656 13.43132812 17.27195313 13.87890625 18.41015625 C15.99954042 25.20061896 16.1509596 31.97861792 16.1328125 39.03125 C16.13424759 40.28427917 16.13424759 40.28427917 16.13571167 41.56262207 C16.1363879 43.31730221 16.13457275 45.07198492 16.13037109 46.82666016 C16.12501493 49.49257089 16.13033511 52.15831318 16.13671875 54.82421875 C16.13605787 56.53906287 16.1347765 58.25390688 16.1328125 59.96875 C16.13483673 60.75544067 16.13686096 61.54213135 16.13894653 62.35266113 C16.11820028 67.31770941 15.70360223 72.08386765 15 77 C14.67 77 14.34 77 14 77 C13.9845388 76.17553375 13.9845388 76.17553375 13.96876526 75.33441162 C13.85968256 69.55813096 13.74518215 63.78197487 13.62768555 58.00585938 C13.58465919 55.85679763 13.54296501 53.70770874 13.50268555 51.55859375 C14.10040437 30.52795074 14.10040437 30.52795074 8 11 C8 10.34 8 9.68 8 9 C7.01 9 6.02 9 5 9 C5 8.01 5 7.02 5 6 C4.01 5.67 3.02 5.34 2 5 C0.8125 2.4375 0.8125 2.4375 0 0 Z " fill="#FAA55F" transform="translate(418,123)"/>
<path d="M0 0 C0.33 0 0.66 0 1 0 C1.01030746 0.62925385 1.02061493 1.25850769 1.03123474 1.90682983 C1.13994994 8.49380532 1.25448933 15.08066178 1.37231445 21.66748047 C1.41545625 24.12123102 1.45714465 26.57500759 1.49731445 29.02880859 C1.55552323 32.56876445 1.61906833 36.10859181 1.68359375 39.6484375 C1.70030624 40.73426117 1.71701874 41.82008484 1.73423767 42.93881226 C1.84255335 48.58845509 2.12683924 54.14561216 2.79237366 59.75845337 C3.02185794 62.23597968 3.23072206 64.51661811 3 67 C1.515 67.99 1.515 67.99 0 69 C-0.77776808 65.55620854 -1.12619226 62.3771927 -1.12939453 58.84936523 C-1.13254669 57.84739609 -1.13569885 56.84542694 -1.13894653 55.81309509 C-1.1369223 54.73910965 -1.13489807 53.66512421 -1.1328125 52.55859375 C-1.13376923 51.43993423 -1.13472595 50.32127472 -1.13571167 49.16871643 C-1.1363917 46.80087223 -1.13454973 44.43302616 -1.13037109 42.06518555 C-1.1250556 38.47505393 -1.13030384 34.88504943 -1.13671875 31.29492188 C-1.13605725 28.98697889 -1.13477461 26.67903599 -1.1328125 24.37109375 C-1.13483673 23.31127792 -1.13686096 22.2514621 -1.13894653 21.15953064 C-1.11709955 14.06215877 -0.69043243 7.06322709 0 0 Z " fill="#373766" transform="translate(431,266)"/>
<path d="M0 0 C0.99 0.33 1.98 0.66 3 1 C3.19148936 20.34042553 3.19148936 20.34042553 2 30 C0.68 29.67 -0.64 29.34 -2 29 C-1.34 28.67 -0.68 28.34 0 28 C-0.2475 26.948125 -0.2475 26.948125 -0.5 25.875 C-1.02578792 22.85171946 -1.06659301 20.06327839 -1 17 C-1 16.01 -1 15.02 -1 14 C-1 2 -1 2 0 0 Z " fill="#EB6B1D" transform="translate(216,266)"/>
<path d="M0 0 C0.66 0 1.32 0 2 0 C1.34 1.65 0.68 3.3 0 5 C0.66 5.33 1.32 5.66 2 6 C-2.16083916 10.8951049 -2.16083916 10.8951049 -6 11.375 C-10.44531536 10.81933558 -14.05221647 10.19321307 -18 8 C-18 8.66 -18 9.32 -18 10 C-18.78375 9.95875 -19.5675 9.9175 -20.375 9.875 C-23.16116119 9.71271266 -23.16116119 9.71271266 -25 12 C-25 10.68 -25 9.36 -25 8 C-22.54724859 6.7736243 -20.9494219 6.88584686 -18.2109375 6.90234375 C-17.26992187 6.90556641 -16.32890625 6.90878906 -15.359375 6.91210938 C-14.37453125 6.92048828 -13.3896875 6.92886719 -12.375 6.9375 C-11.38242188 6.94201172 -10.38984375 6.94652344 -9.3671875 6.95117188 C-6.9113984 6.96297855 -4.45572896 6.979446 -2 7 C-2 5.35 -2 3.7 -2 2 C-1.34 2 -0.68 2 0 2 C0 1.34 0 0.68 0 0 Z " fill="#F27125" transform="translate(249,337)"/>
<path d="M0 0 C1.5625 1.1875 1.5625 1.1875 3 3 C2.625 5.5625 2.625 5.5625 2 8 C2.33 8.66 2.66 9.32 3 10 C2.01 10.99 1.02 11.98 0 13 C-0.66 12.34 -1.32 11.68 -2 11 C-5.12197478 12.3089572 -5.12197478 12.3089572 -7 15 C-7.66 15 -8.32 15 -9 15 C-6.29508197 8.14754098 -6.29508197 8.14754098 -4 7 C-3.67 6.34 -3.34 5.68 -3 5 C-2.34 5 -1.68 5 -1 5 C-0.67 3.35 -0.34 1.7 0 0 Z " fill="#1B1C4D" transform="translate(247,144)"/>
<path d="M0 0 C0.99 0 1.98 0 3 0 C4.09876924 9.23238688 4.11742666 18.40903979 4.0625 27.6875 C4.05747144 29.17903494 4.05291095 30.67057154 4.04882812 32.16210938 C4.03793804 35.77477462 4.02074936 39.38737632 4 43 C3.67 43 3.34 43 3 43 C2.67 33.43 2.34 23.86 2 14 C1.34 13.67 0.68 13.34 0 13 C-0.125 6.25 -0.125 6.25 1 4 C0.60061233 1.90178785 0.60061233 1.90178785 0 0 Z " fill="#E26A22" transform="translate(428,183)"/>
<path d="M0 0 C1.33257403 15.74487472 1.33257403 15.74487472 0 23 C-0.99 23 -1.98 23 -3 23 C-4.125 17.25 -4.125 17.25 -3 15 C-2.78622279 9.39296787 -2.78622279 9.39296787 -4 4 C-3.67 3.01 -3.34 2.02 -3 1 C-1 0 -1 0 0 0 Z " fill="#181E4B" transform="translate(219,211)"/>
<path d="M0 0 C0.98120464 3.05263664 0.98120464 4.94736336 0 8 C-0.99 8 -1.98 8 -3 8 C-3.66 8.66 -4.32 9.32 -5 10 C-5.33 9.34 -5.66 8.68 -6 8 C-7.98 8 -9.96 8 -12 8 C-12 7.34 -12 6.68 -12 6 C-12.66 6 -13.32 6 -14 6 C-14 6.66 -14 7.32 -14 8 C-14.66 7.67 -15.32 7.34 -16 7 C-15.67 6.34 -15.34 5.68 -15 5 C-12.63671875 4.21875 -12.63671875 4.21875 -9.6875 3.5 C-6.20165531 2.64366432 -3.1500715 1.73590638 0 0 Z " fill="#2D2B5B" transform="translate(204,187)"/>
<path d="M0 0 C0.33 0 0.66 0 1 0 C1 12.87 1 25.74 1 39 C0.67 39 0.34 39 0 39 C-0.65388672 34.25932127 -1 29.78883887 -1 25 C-1.33 24.01 -1.66 23.02 -2 22 C-1.69916793 20.65895975 -1.36319637 19.3255102 -1 18 C-0.9337186 16.64338552 -0.91449595 15.28381913 -0.9375 13.92578125 C-0.94523437 13.17619141 -0.95296875 12.42660156 -0.9609375 11.65429688 C-0.97382813 10.88150391 -0.98671875 10.10871094 -1 9.3125 C-1.0456331 6.535726 -1.04723586 3.77805879 -1 1 C-0.67 0.67 -0.34 0.34 0 0 Z " fill="#903F21" transform="translate(430,236)"/>
<path d="M0 0 C2.475 0.495 2.475 0.495 5 1 C5 1.66 5 2.32 5 3 C5.66 3.33 6.32 3.66 7 4 C6.7215625 5.11375 6.7215625 5.11375 6.4375 6.25 C5.82245472 8.87424696 5.82245472 8.87424696 6.53125 10.875 C7.10498661 13.47593932 6.70523901 15.17904397 6.0625 17.75 C5.86785156 18.54921875 5.67320312 19.3484375 5.47265625 20.171875 C5.31667969 20.77515625 5.16070312 21.3784375 5 22 C5.66 22.33 6.32 22.66 7 23 C6.01 23 5.02 23 4 23 C4.04125 21.80375 4.0825 20.6075 4.125 19.375 C4.13174757 15.54912514 3.35856505 12.5962016 2 9 C1.64386903 7.33805547 1.30791692 5.671549 1 4 C0.67516582 2.66457061 0.3449145 1.33038449 0 0 Z " fill="#F3722D" transform="translate(244,259)"/>
<path d="M0 0 C0.94875 0.04125 1.8975 0.0825 2.875 0.125 C3.865 2.105 4.855 4.085 5.875 6.125 C4.93527344 6.10759766 4.93527344 6.10759766 3.9765625 6.08984375 C2.75066406 6.07630859 2.75066406 6.07630859 1.5 6.0625 C0.28183594 6.04509766 0.28183594 6.04509766 -0.9609375 6.02734375 C-3.17437142 5.98033666 -3.17437142 5.98033666 -5.125 7.125 C-5.25 4.75 -5.25 4.75 -5.125 2.125 C-3.125 0.125 -3.125 0.125 0 0 Z " fill="#E79808" transform="translate(232.125,105.875)"/>
<path d="M0 0 C1.32 0.33 2.64 0.66 4 1 C4.103125 1.639375 4.20625 2.27875 4.3125 2.9375 C4.539375 3.618125 4.76625 4.29875 5 5 C5.99 5.33 6.98 5.66 8 6 C8 6.66 8 7.32 8 8 C8.66 8.33 9.32 8.66 10 9 C11.10546875 10.99609375 11.10546875 10.99609375 12.1875 13.4375 C12.55230469 14.24058594 12.91710937 15.04367188 13.29296875 15.87109375 C14 18 14 18 13 20 C12.16151196 18.54462432 11.32936066 17.08559627 10.5 15.625 C10.0359375 14.81289062 9.571875 14.00078125 9.09375 13.1640625 C8 11 8 11 8 9 C7.01 9 6.02 9 5 9 C5 8.01 5 7.02 5 6 C4.01 5.67 3.02 5.34 2 5 C0.8125 2.4375 0.8125 2.4375 0 0 Z " fill="#F7AE63" transform="translate(418,123)"/>
<path d="M0 0 C2.59487555 1.29743778 3.02269781 2.29362471 4 5 C3.6875 7.4375 3.6875 7.4375 3 10 C2.16674805 13.41633299 1.87884021 15.63652064 3 19 C2.01 19.33 1.02 19.66 0 20 C0 13.4 0 6.8 0 0 Z " fill="#F56B1D" transform="translate(247,314)"/>
<path d="M0 0 C0 0.99 0 1.98 0 3 C-4.16187695 5.77458464 -8.6163096 6.41714582 -13.5 5.5625 C-13.995 5.376875 -14.49 5.19125 -15 5 C-14.67 4.01 -14.34 3.02 -14 2 C-13.01 2 -12.02 2 -11 2 C-9.29026548 1.87163335 -7.58190149 1.72423265 -5.875 1.5625 C-4.54082031 1.44068359 -4.54082031 1.44068359 -3.1796875 1.31640625 C-1.02631348 1.22571101 -1.02631348 1.22571101 0 0 Z " fill="#F37226" transform="translate(242,259)"/>
<path d="M0 0 C0.66 0 1.32 0 2 0 C2 6.6 2 13.2 2 20 C1.67 20 1.34 20 1 20 C1 17.69 1 15.38 1 13 C0.34 13 -0.32 13 -1 13 C-0.67 8.71 -0.34 4.42 0 0 Z " fill="#040D3E" transform="translate(218,198)"/>
<path d="M0 0 C2.19219402 2.36689329 2.9871902 3.51727269 3.07421875 6.796875 C2.94660156 7.77140625 2.81898438 8.7459375 2.6875 9.75 C2.50767578 11.22726562 2.50767578 11.22726562 2.32421875 12.734375 C2.21722656 13.48203125 2.11023438 14.2296875 2 15 C0.68 14.67 -0.64 14.34 -2 14 C-1.34 13.67 -0.68 13.34 0 13 C-0.165 12.29875 -0.33 11.5975 -0.5 10.875 C-1.15338451 7.11803905 -1.74364034 3.48728068 0 0 Z " fill="#F1752E" transform="translate(216,281)"/>
<path d="M0 0 C0.99 0 1.98 0 3 0 C4.125 3.75 4.125 3.75 3 6 C2.9310528 7.37342831 2.91532292 8.75002102 2.9375 10.125 C2.958125 11.40375 2.97875 12.6825 3 14 C2.67 12.68 2.34 11.36 2 10 C1.34 10 0.68 10 0 10 C0 6.7 0 3.4 0 0 Z " fill="#D2520E" transform="translate(110,230)"/>
<path d="M0 0 C3.38168678 4.50891571 3.37221275 5.60291507 3 11 C2.70814937 13.0064731 2.38830401 15.00994193 2 17 C1.34 16.67 0.68 16.34 0 16 C0 10.72 0 5.44 0 0 Z " fill="#F37B36" transform="translate(248,297)"/>
<path d="M0 0 C0.66 0 1.32 0 2 0 C2 6.6 2 13.2 2 20 C1.67 20 1.34 20 1 20 C0.34611328 15.25932127 0 10.78883887 0 6 C-0.33 5.01 -0.66 4.02 -1 3 C-0.67 2.01 -0.34 1.02 0 0 Z " fill="#632F2E" transform="translate(429,255)"/>
<path d="M0 0 C0.66 0.33 1.32 0.66 2 1 C-0.0367723 4.05515845 -0.80586573 4.60256625 -4 6 C-4.99 6.495 -4.99 6.495 -6 7 C-8.125 6.0625 -8.125 6.0625 -10 5 C-8 4 -6 3 -4 2 C-3.2575 1.5875 -2.515 1.175 -1.75 0.75 C-0.88375 0.37875 -0.88375 0.37875 0 0 Z " fill="#080E42" transform="translate(319,336)"/>
<path d="M0 0 C0.66 0.33 1.32 0.66 2 1 C4.09821215 0.60061233 4.09821215 0.60061233 6 0 C3.94766315 2.2477975 2.99332739 3.0022242 0 4 C-0.33 3.34 -0.66 2.68 -1 2 C-0.67 1.34 -0.34 0.68 0 0 Z M-5 3 C-4.67 3.66 -4.34 4.32 -4 5 C-2.68 4.67 -1.36 4.34 0 4 C-0.99 5.485 -0.99 5.485 -2 7 C-3.65 6.67 -5.3 6.34 -7 6 C-7 5.34 -7 4.68 -7 4 C-6.34 3.67 -5.68 3.34 -5 3 Z " fill="#EF910E" transform="translate(62,113)"/>
<path d="M0 0 C1.93797408 3.87594815 2.2956545 5.45854651 2.3125 9.625 C2.32925781 10.58664062 2.34601563 11.54828125 2.36328125 12.5390625 C2.24339844 13.35117187 2.12351562 14.16328125 2 15 C1.01 15.66 0.02 16.32 -1 17 C-0.67 11.39 -0.34 5.78 0 0 Z " fill="#3D4876" transform="translate(432,318)"/>
<path d="M0 0 C0.66 0.66 1.32 1.32 2 2 C0.625 3.5 0.625 3.5 -1 5 C-1.66 5 -2.32 5 -3 5 C-3 5.66 -3 6.32 -3 7 C-4.375 8.625 -4.375 8.625 -6 10 C-6.66 10 -7.32 10 -8 10 C-8 8.68 -8 7.36 -8 6 C-2.88888889 2 -2.88888889 2 0 2 C0 1.34 0 0.68 0 0 Z " fill="#F09F0C" transform="translate(138,70)"/>
<path d="M0 0 C2.5625 2.25 2.5625 2.25 5 5 C4.8125 7.3125 4.8125 7.3125 4 9 C3.01 9 2.02 9 1 9 C1 7.02 1 5.04 1 3 C0.34 2.67 -0.32 2.34 -1 2 C-0.67 1.34 -0.34 0.68 0 0 Z " fill="#EA611C" transform="translate(353,181)"/>
<path d="M0 0 C3.96 0 7.92 0 12 0 C11.67 0.66 11.34 1.32 11 2 C7.0832314 3.23098442 3.97610732 2.83220851 0 2 C0 1.34 0 0.68 0 0 Z " fill="#F18749" transform="translate(236,345)"/>
<path d="M0 0 C1.36125 0.12375 1.36125 0.12375 2.75 0.25 C2.13125 0.3325 1.5125 0.415 0.875 0.5 C-1.42972859 1.04394438 -1.42972859 1.04394438 -2.3125 3.25 C-2.621875 3.91 -2.93125 4.57 -3.25 5.25 C-4.24 5.58 -5.23 5.91 -6.25 6.25 C-6.58 5.59 -6.91 4.93 -7.25 4.25 C-4.83923194 1.28290085 -3.90322061 0.30024774 0 0 Z " fill="#0A0E40" transform="translate(353.25,402.75)"/>
<path d="M0 0 C1.5 1.25 1.5 1.25 3 3 C3 4.32 3 5.64 3 7 C2.01 7 1.02 7 0 7 C-0.33 7.66 -0.66 8.32 -1 9 C-1.09765625 2.84765625 -1.09765625 2.84765625 -1 1 C-0.67 0.67 -0.34 0.34 0 0 Z " fill="#323053" transform="translate(247,144)"/>
<path d="M0 0 C0.66 0 1.32 0 2 0 C2.33 0.99 2.66 1.98 3 3 C2.01 3.99 1.02 4.98 0 6 C0 5.34 0 4.68 0 4 C-0.66 4 -1.32 4 -2 4 C-2 4.66 -2 5.32 -2 6 C-3.32 5.67 -4.64 5.34 -6 5 C-5.195625 4.731875 -4.39125 4.46375 -3.5625 4.1875 C-2.716875 3.795625 -1.87125 3.40375 -1 3 C-0.67 2.01 -0.34 1.02 0 0 Z " fill="#EB8B0B" transform="translate(197,122)"/>
<path d="M0 0 C2.85689594 4.28534391 2.34655647 7.96398073 1.5 12.9375 C1.335 13.618125 1.17 14.29875 1 15 C0.67 15 0.34 15 0 15 C-1.125 9.25 -1.125 9.25 0 7 C0.04022391 4.6670134 0.04320247 2.33293334 0 0 Z " fill="#44496B" transform="translate(216,219)"/>
<path d="M0 0 C0.33 0.99 0.66 1.98 1 3 C0.34 3 -0.32 3 -1 3 C-1.33 3.99 -1.66 4.98 -2 6 C-2.96873032 7.35622245 -3.96434215 8.69417053 -5 10 C-4.4140625 3.84765625 -4.4140625 3.84765625 -4 2 C-3.34 1.67 -2.68 1.34 -2 1 C-1.34 1.33 -0.68 1.66 0 2 C0 1.34 0 0.68 0 0 Z " fill="#EC7519" transform="translate(123,170)"/>
<path d="M0 0 C1.875 0.25 1.875 0.25 4 1 C5.3125 2.8125 5.3125 2.8125 6 5 C5.625 7.25 5.625 7.25 5 9 C5 8.01 5 7.02 5 6 C4.01 5.67 3.02 5.34 2 5 C0.8125 2.4375 0.8125 2.4375 0 0 Z " fill="#F59127" transform="translate(418,123)"/>
<path d="M0 0 C0.33 1.98 0.66 3.96 1 6 C0.401875 5.814375 -0.19625 5.62875 -0.8125 5.4375 C-3.16408762 4.77906313 -3.16408762 4.77906313 -6 6 C-5.1875 3.5625 -5.1875 3.5625 -4 1 C-1 0 -1 0 0 0 Z " fill="#EA8A15" transform="translate(276,122)"/>
<path d="M0 0 C0 1.65 0 3.3 0 5 C-1.98 5.33 -3.96 5.66 -6 6 C-5.6875 4.125 -5.6875 4.125 -5 2 C-2 0 -2 0 0 0 Z " fill="#0B0D3F" transform="translate(224,175)"/>
<path d="M0 0 C0.99 0 1.98 0 3 0 C2.34 1.98 1.68 3.96 1 6 C-0.65 6 -2.3 6 -4 6 C-3.67 5.01 -3.34 4.02 -3 3 C-1.68 3 -0.36 3 1 3 C0.67 2.01 0.34 1.02 0 0 Z " fill="#272758" transform="translate(225,170)"/>
<path d="M0 0 C0.66 0 1.32 0 2 0 C2.66 1.32 3.32 2.64 4 4 C3.38125 4.12375 2.7625 4.2475 2.125 4.375 C-0.19120832 4.87197356 -0.19120832 4.87197356 -2 7 C-1.125 1.125 -1.125 1.125 0 0 Z " fill="#EF870E" transform="translate(178,132)"/>
<path d="M0 0 C1.485 0.99 1.485 0.99 3 2 C2.67 4.64 2.34 7.28 2 10 C0.4375 8.375 0.4375 8.375 -1 6 C-0.6875 2.75 -0.6875 2.75 0 0 Z " fill="#F46512" transform="translate(247,264)"/>
<path d="M0 0 C2.31 0 4.62 0 7 0 C7 0.99 7 1.98 7 3 C4.625 3.625 4.625 3.625 2 4 C1.34 3.34 0.68 2.68 0 2 C0 1.34 0 0.68 0 0 Z " fill="#33335C" transform="translate(216,237)"/>
<path d="M0 0 C1.32 0.33 2.64 0.66 4 1 C3.67 1.99 3.34 2.98 3 4 C2.01 4.33 1.02 4.66 0 5 C-0.99 4.01 -1.98 3.02 -3 2 C-2.01 2 -1.02 2 0 2 C0 1.34 0 0.68 0 0 Z " fill="#2B2E60" transform="translate(211,181)"/>
<path d="M0 0 C1.32 0.33 2.64 0.66 4 1 C4 1.99 4 2.98 4 4 C2.68 2.68 1.36 1.36 0 0 Z " fill="#0A0B48" transform="translate(203,454)"/>
<path d="M0 0 C1 4 1 4 1 4 Z " fill="#FE9B5C" transform="translate(250,287)"/>
<path d="M0 0 C0.66 0 1.32 0 2 0 C2 0.66 2 1.32 2 2 C1.34 2 0.68 2 0 2 C0 1.34 0 0.68 0 0 Z " fill="#9B98AA" transform="translate(249,142)"/>
<path d="M0 0 C0.33 0.99 0.66 1.98 1 3 C0.34 2.67 -0.32 2.34 -1 2 C-0.67 1.34 -0.34 0.68 0 0 Z " fill="#E79626" transform="translate(353,81)"/>
<path d="M0 0 C0.66 0.66 1.32 1.32 2 2 C1.34 2 0.68 2 0 2 C0 1.34 0 0.68 0 0 Z " fill="#070A46" transform="translate(277,448)"/>
<path d="M0 0 C0.99 0.495 0.99 0.495 2 1 C1.01 1.495 1.01 1.495 0 2 C0 1.34 0 0.68 0 0 Z " fill="#150E3A" transform="translate(122,313)"/>
<path d="M0 0 C0.66 0.66 1.32 1.32 2 2 C1.34 2 0.68 2 0 2 C0 1.34 0 0.68 0 0 Z " fill="#FC843E" transform="translate(249,295)"/>
<path d="M0 0 C0.66 0 1.32 0 2 0 C1.67 0.66 1.34 1.32 1 2 C0.67 1.34 0.34 0.68 0 0 Z " fill="#F08E53" transform="translate(249,284)"/>
<path d="M0 0 C0.66 0 1.32 0 2 0 C1.67 0.66 1.34 1.32 1 2 C0.67 1.34 0.34 0.68 0 0 Z " fill="#DA5A0F" transform="translate(354,201)"/>
<path d="M0 0 C0.66 0.66 1.32 1.32 2 2 C1.34 2 0.68 2 0 2 C0 1.34 0 0.68 0 0 Z " fill="#EC9F1C" transform="translate(313,59)"/>
<path d="" fill="#040D33" transform="translate(0,0)"/>
<path d="M0 0 C2 1 2 1 2 1 Z " fill="#080F3E" transform="translate(192,449)"/>
<path d="" fill="#070D33" transform="translate(0,0)"/>
<path d="" fill="#040C39" transform="translate(0,0)"/>
<path d="M0 0 C2 1 2 1 2 1 Z " fill="#F0AF8E" transform="translate(227,347)"/>
<path d="M0 0 C2 1 2 1 2 1 Z " fill="#080B46" transform="translate(128,322)"/>
<path d="" fill="#493034" transform="translate(0,0)"/>
<path d="M0 0 C2 1 2 1 2 1 Z " fill="#ECA673" transform="translate(214,265)"/>
<path d="" fill="#AD5D2B" transform="translate(0,0)"/>
<path d="M0 0 C2 1 2 1 2 1 Z " fill="#CED0D3" transform="translate(213,237)"/>
<path d="M0 0 C2 1 2 1 2 1 Z " fill="#BB5F3C" transform="translate(114,222)"/>
<path d="" fill="#D66822" transform="translate(0,0)"/>
<path d="" fill="#5D677C" transform="translate(0,0)"/>
<path d="" fill="#E16039" transform="translate(0,0)"/>
<path d="M0 0 C2 1 2 1 2 1 Z " fill="#5C5F83" transform="translate(201,187)"/>
<path d="M0 0 C2 1 2 1 2 1 Z " fill="#8B89AF" transform="translate(213,179)"/>
<path d="" fill="#DE7021" transform="translate(0,0)"/>
<path d="" fill="#DD8135" transform="translate(0,0)"/>
<path d="" fill="#F8870D" transform="translate(0,0)"/>
<path d="M0 0 C2 1 2 1 2 1 Z " fill="#F59800" transform="translate(345,77)"/>
<path d="M0 0 C2 1 2 1 2 1 Z " fill="#F69A01" transform="translate(127,75)"/>
<path d="M0 0 C2 1 2 1 2 1 Z " fill="#DEA32D" transform="translate(269,34)"/>
<path d="M0 0 C2 1 2 1 2 1 Z " fill="#EA9C24" transform="translate(222,23)"/>
<path d="M0 0 C2 1 2 1 2 1 Z " fill="#D69B51" transform="translate(216,23)"/>
<path d="" fill="#0D0D34" transform="translate(0,0)"/>
<path d="" fill="#08093A" transform="translate(0,0)"/>
<path d="" fill="#090E41" transform="translate(0,0)"/>
<path d="" fill="#070D2D" transform="translate(0,0)"/>
<path d="" fill="#020930" transform="translate(0,0)"/>
<path d="" fill="#060A36" transform="translate(0,0)"/>
<path d="" fill="#040F24" transform="translate(0,0)"/>
<path d="" fill="#050F37" transform="translate(0,0)"/>
<path d="" fill="#090F32" transform="translate(0,0)"/>
<path d="" fill="#09102E" transform="translate(0,0)"/>
<path d="" fill="#080B41" transform="translate(0,0)"/>
<path d="" fill="#080C46" transform="translate(0,0)"/>
<path d="" fill="#091133" transform="translate(0,0)"/>
<path d="" fill="#0C0E3B" transform="translate(0,0)"/>
<path d="" fill="#0F0C3F" transform="translate(0,0)"/>
<path d="" fill="#090F32" transform="translate(0,0)"/>
<path d="" fill="#040D2E" transform="translate(0,0)"/>
<path d="" fill="#080A32" transform="translate(0,0)"/>
<path d="" fill="#070E2B" transform="translate(0,0)"/>
<path d="" fill="#090748" transform="translate(0,0)"/>
<path d="" fill="#0C0E39" transform="translate(0,0)"/>
<path d="" fill="#060D2A" transform="translate(0,0)"/>
<path d="" fill="#0A0D13" transform="translate(0,0)"/>
<path d="" fill="#080B4E" transform="translate(0,0)"/>
<path d="" fill="#070C3F" transform="translate(0,0)"/>
<path d="" fill="#080D40" transform="translate(0,0)"/>
<path d="" fill="#080E33" transform="translate(0,0)"/>
<path d="" fill="#0B0C40" transform="translate(0,0)"/>
<path d="" fill="#0A0C2B" transform="translate(0,0)"/>
<path d="" fill="#090B4A" transform="translate(0,0)"/>
<path d="" fill="#05102F" transform="translate(0,0)"/>
<path d="" fill="#050D3F" transform="translate(0,0)"/>
<path d="" fill="#050F40" transform="translate(0,0)"/>
<path d="" fill="#090D3C" transform="translate(0,0)"/>
<path d="" fill="#040D3A" transform="translate(0,0)"/>
<path d="" fill="#0A0A25" transform="translate(0,0)"/>
<path d="" fill="#080B07" transform="translate(0,0)"/>
<path d="" fill="#0B0738" transform="translate(0,0)"/>
<path d="" fill="#080D40" transform="translate(0,0)"/>
<path d="" fill="#090846" transform="translate(0,0)"/>
<path d="" fill="#0E0C38" transform="translate(0,0)"/>
<path d="" fill="#090C2F" transform="translate(0,0)"/>
<path d="" fill="#0B0E36" transform="translate(0,0)"/>
<path d="" fill="#0E0931" transform="translate(0,0)"/>
<path d="" fill="#070D2D" transform="translate(0,0)"/>
<path d="" fill="#0D094A" transform="translate(0,0)"/>
<path d="" fill="#0E121A" transform="translate(0,0)"/>
<path d="" fill="#030724" transform="translate(0,0)"/>
<path d="" fill="#0B0F39" transform="translate(0,0)"/>
<path d="" fill="#090C2F" transform="translate(0,0)"/>
<path d="" fill="#070B3C" transform="translate(0,0)"/>
<path d="" fill="#090A3A" transform="translate(0,0)"/>
<path d="" fill="#080D39" transform="translate(0,0)"/>
<path d="" fill="#0A1024" transform="translate(0,0)"/>
<path d="" fill="#06073D" transform="translate(0,0)"/>
<path d="" fill="#8B706E" transform="translate(0,0)"/>
<path d="" fill="#0B0B46" transform="translate(0,0)"/>
<path d="" fill="#F2AE8F" transform="translate(0,0)"/>
<path d="" fill="#F5BEA5" transform="translate(0,0)"/>
<path d="" fill="#EEB996" transform="translate(0,0)"/>
<path d="" fill="#F98F5C" transform="translate(0,0)"/>
<path d="" fill="#0A0C39" transform="translate(0,0)"/>
<path d="" fill="#DE9B68" transform="translate(0,0)"/>
<path d="" fill="#0A0E2B" transform="translate(0,0)"/>
<path d="" fill="#F68F50" transform="translate(0,0)"/>
<path d="" fill="#0A0D33" transform="translate(0,0)"/>
<path d="" fill="#0A0C39" transform="translate(0,0)"/>
<path d="" fill="#070B11" transform="translate(0,0)"/>
<path d="" fill="#EA9844" transform="translate(0,0)"/>
<path d="" fill="#FF9A4D" transform="translate(0,0)"/>
<path d="" fill="#080B41" transform="translate(0,0)"/>
<path d="" fill="#F88B42" transform="translate(0,0)"/>
<path d="" fill="#0A0B3F" transform="translate(0,0)"/>
<path d="" fill="#0A0D25" transform="translate(0,0)"/>
<path d="" fill="#080B4A" transform="translate(0,0)"/>
<path d="" fill="#04072B" transform="translate(0,0)"/>
<path d="" fill="#02083A" transform="translate(0,0)"/>
<path d="" fill="#0B0D38" transform="translate(0,0)"/>
<path d="" fill="#080B41" transform="translate(0,0)"/>
<path d="" fill="#070855" transform="translate(0,0)"/>
<path d="" fill="#0F0E35" transform="translate(0,0)"/>
<path d="" fill="#0C0B39" transform="translate(0,0)"/>
<path d="" fill="#0A0B3F" transform="translate(0,0)"/>
<path d="" fill="#0A0D25" transform="translate(0,0)"/>
<path d="" fill="#F08A5C" transform="translate(0,0)"/>
<path d="" fill="#D6996E" transform="translate(0,0)"/>
<path d="" fill="#F58751" transform="translate(0,0)"/>
<path d="" fill="#282039" transform="translate(0,0)"/>
<path d="" fill="#E3965E" transform="translate(0,0)"/>
<path d="" fill="#191128" transform="translate(0,0)"/>
<path d="" fill="#E09762" transform="translate(0,0)"/>
<path d="" fill="#251B31" transform="translate(0,0)"/>
<path d="" fill="#070B43" transform="translate(0,0)"/>
<path d="" fill="#FF9555" transform="translate(0,0)"/>
<path d="" fill="#0C0F35" transform="translate(0,0)"/>
<path d="" fill="#0C0F24" transform="translate(0,0)"/>
<path d="" fill="#746F91" transform="translate(0,0)"/>
<path d="" fill="#F0A27A" transform="translate(0,0)"/>
<path d="" fill="#6E3B31" transform="translate(0,0)"/>
<path d="" fill="#26212E" transform="translate(0,0)"/>
<path d="" fill="#733528" transform="translate(0,0)"/>
<path d="" fill="#7A3421" transform="translate(0,0)"/>
<path d="" fill="#F19353" transform="translate(0,0)"/>
<path d="" fill="#DEA886" transform="translate(0,0)"/>
<path d="" fill="#6B4429" transform="translate(0,0)"/>
<path d="" fill="#8A4732" transform="translate(0,0)"/>
<path d="" fill="#75422D" transform="translate(0,0)"/>
<path d="" fill="#D6AD8F" transform="translate(0,0)"/>
<path d="" fill="#E4A97B" transform="translate(0,0)"/>
<path d="" fill="#904C31" transform="translate(0,0)"/>
<path d="" fill="#7C4334" transform="translate(0,0)"/>
<path d="" fill="#F5BD99" transform="translate(0,0)"/>
<path d="" fill="#843542" transform="translate(0,0)"/>
<path d="" fill="#DC936A" transform="translate(0,0)"/>
<path d="" fill="#E4C4B6" transform="translate(0,0)"/>
<path d="" fill="#CB6839" transform="translate(0,0)"/>
<path d="" fill="#9B4F2B" transform="translate(0,0)"/>
<path d="" fill="#B44912" transform="translate(0,0)"/>
<path d="" fill="#AA4E1C" transform="translate(0,0)"/>
<path d="" fill="#9C553F" transform="translate(0,0)"/>
<path d="" fill="#1A1738" transform="translate(0,0)"/>
<path d="" fill="#786D3F" transform="translate(0,0)"/>
<path d="" fill="#B0602C" transform="translate(0,0)"/>
<path d="" fill="#797C92" transform="translate(0,0)"/>
<path d="" fill="#767889" transform="translate(0,0)"/>
<path d="" fill="#AF6334" transform="translate(0,0)"/>
<path d="" fill="#5E608A" transform="translate(0,0)"/>
<path d="" fill="#D45B19" transform="translate(0,0)"/>
<path d="" fill="#D0662A" transform="translate(0,0)"/>
<path d="" fill="#CC6022" transform="translate(0,0)"/>
<path d="" fill="#5B628A" transform="translate(0,0)"/>
<path d="" fill="#D65E30" transform="translate(0,0)"/>
<path d="" fill="#727A9C" transform="translate(0,0)"/>
<path d="" fill="#F7FEFF" transform="translate(0,0)"/>
<path d="" fill="#7D849D" transform="translate(0,0)"/>
<path d="" fill="#F96000" transform="translate(0,0)"/>
<path d="" fill="#E16224" transform="translate(0,0)"/>
<path d="" fill="#F86107" transform="translate(0,0)"/>
<path d="" fill="#E85C02" transform="translate(0,0)"/>
<path d="" fill="#E16A1A" transform="translate(0,0)"/>
<path d="" fill="#ACAFAB" transform="translate(0,0)"/>
<path d="" fill="#ADADAD" transform="translate(0,0)"/>
<path d="" fill="#606079" transform="translate(0,0)"/>
<path d="" fill="#999AAE" transform="translate(0,0)"/>
<path d="" fill="#B8604C" transform="translate(0,0)"/>
<path d="" fill="#737287" transform="translate(0,0)"/>
<path d="" fill="#D1663F" transform="translate(0,0)"/>
<path d="" fill="#DF7420" transform="translate(0,0)"/>
<path d="" fill="#CFB69A" transform="translate(0,0)"/>
<path d="" fill="#B28446" transform="translate(0,0)"/>
<path d="" fill="#3E4772" transform="translate(0,0)"/>
<path d="" fill="#667088" transform="translate(0,0)"/>
<path d="" fill="#DB792F" transform="translate(0,0)"/>
<path d="" fill="#75798C" transform="translate(0,0)"/>
<path d="" fill="#DF7C2C" transform="translate(0,0)"/>
<path d="" fill="#A0A2B1" transform="translate(0,0)"/>
<path d="" fill="#EE691F" transform="translate(0,0)"/>
<path d="" fill="#252D46" transform="translate(0,0)"/>
<path d="" fill="#DD7B28" transform="translate(0,0)"/>
<path d="" fill="#515767" transform="translate(0,0)"/>
<path d="" fill="#A4A9C0" transform="translate(0,0)"/>
<path d="" fill="#FB6E01" transform="translate(0,0)"/>
<path d="" fill="#ED7618" transform="translate(0,0)"/>
<path d="" fill="#D7762A" transform="translate(0,0)"/>
<path d="" fill="#C67E42" transform="translate(0,0)"/>
<path d="" fill="#8E91A7" transform="translate(0,0)"/>
<path d="" fill="#7A8397" transform="translate(0,0)"/>
<path d="" fill="#ED7921" transform="translate(0,0)"/>
<path d="" fill="#E67F1E" transform="translate(0,0)"/>
<path d="" fill="#E7781E" transform="translate(0,0)"/>
<path d="" fill="#EB7421" transform="translate(0,0)"/>
<path d="" fill="#CA8B35" transform="translate(0,0)"/>
<path d="" fill="#C88D38" transform="translate(0,0)"/>
<path d="" fill="#E7791C" transform="translate(0,0)"/>
<path d="" fill="#CA8D49" transform="translate(0,0)"/>
<path d="" fill="#9797A5" transform="translate(0,0)"/>
<path d="" fill="#D48338" transform="translate(0,0)"/>
<path d="" fill="#E17E23" transform="translate(0,0)"/>
<path d="" fill="#C8844B" transform="translate(0,0)"/>
<path d="" fill="#D0903D" transform="translate(0,0)"/>
<path d="" fill="#F38912" transform="translate(0,0)"/>
<path d="" fill="#E07E29" transform="translate(0,0)"/>
<path d="" fill="#D88E3C" transform="translate(0,0)"/>
<path d="" fill="#FF8217" transform="translate(0,0)"/>
<path d="" fill="#DF8E28" transform="translate(0,0)"/>
<path d="" fill="#E38F1E" transform="translate(0,0)"/>
<path d="" fill="#D98647" transform="translate(0,0)"/>
<path d="" fill="#D09517" transform="translate(0,0)"/>
<path d="" fill="#DA952A" transform="translate(0,0)"/>
<path d="" fill="#D4902A" transform="translate(0,0)"/>
<path d="" fill="#E08C1D" transform="translate(0,0)"/>
<path d="" fill="#E9882E" transform="translate(0,0)"/>
<path d="" fill="#E99222" transform="translate(0,0)"/>
<path d="" fill="#9F6F49" transform="translate(0,0)"/>
<path d="" fill="#D3922B" transform="translate(0,0)"/>
<path d="" fill="#E19529" transform="translate(0,0)"/>
<path d="" fill="#DC8D36" transform="translate(0,0)"/>
<path d="" fill="#D98F3F" transform="translate(0,0)"/>
<path d="" fill="#DE9C2C" transform="translate(0,0)"/>
<path d="" fill="#D59844" transform="translate(0,0)"/>
<path d="" fill="#D6995E" transform="translate(0,0)"/>
<path d="" fill="#F79A08" transform="translate(0,0)"/>
<path d="" fill="#F7970F" transform="translate(0,0)"/>
<path d="" fill="#F69800" transform="translate(0,0)"/>
<path d="" fill="#FE940B" transform="translate(0,0)"/>
<path d="" fill="#E5A701" transform="translate(0,0)"/>
<path d="" fill="#EC9F21" transform="translate(0,0)"/>
<path d="" fill="#DEA331" transform="translate(0,0)"/>
<path d="" fill="#E9A12A" transform="translate(0,0)"/>
<path d="" fill="#DCA920" transform="translate(0,0)"/>
<path d="" fill="#E99F2B" transform="translate(0,0)"/>
<path d="" fill="#E39C47" transform="translate(0,0)"/>
<path d="" fill="#C8A94B" transform="translate(0,0)"/>
<path d="" fill="#DA9B47" transform="translate(0,0)"/>
<path d="" fill="#FD980F" transform="translate(0,0)"/>
<path d="" fill="#DBA34D" transform="translate(0,0)"/>
<path d="" fill="#E4A321" transform="translate(0,0)"/>
<path d="" fill="#D9A72B" transform="translate(0,0)"/>
<path d="" fill="#DAA44D" transform="translate(0,0)"/>
<path d="" fill="#C59E50" transform="translate(0,0)"/>
<path d="" fill="#EC9F2C" transform="translate(0,0)"/>
<path d="" fill="#FFA329" transform="translate(0,0)"/>
<path d="" fill="#653200" transform="translate(0,0)"/>
<path d="" fill="#B57957" transform="translate(0,0)"/>
</svg>
